



<svg width="80" height="80" viewBox="0 0 80 80" fill="none" xmlns="http://www.w3.org/2000/svg">
<circle cx="40" cy="40" r="39.5" fill="white" stroke="#CCCCCC"/>
<path d="M28 35.1272C28 35.3486 28.0839 35.5752 28.2468 35.7451C28.5726 36.085 29.1057 36.085 29.4315 35.7451L40.5827 24.1136L51.5709 35.5752C51.8967 35.915 52.4299 35.915 52.7557 35.5752C53.0814 35.2354 53.0814 34.6793 52.7557 34.3395L41.175 22.2549C40.8492 21.915 40.3161 21.915 39.9903 22.2549L28.2468 34.5042C28.079 34.6793 28 34.9007 28 35.1272Z" fill="#093A41"/>
<path d="M34.1289 46.608V47.92H30.3049V58H28.8009V47.92H24.9769V46.608H34.1289ZM38.6072 49.504C39.8552 49.504 40.8152 49.888 41.5192 50.656C42.2072 51.408 42.5592 52.464 42.5592 53.824C42.5592 55.232 42.2072 56.32 41.5192 57.088C40.8152 57.872 39.8392 58.256 38.5912 58.256C37.3272 58.256 36.3352 57.872 35.6312 57.104C34.9112 56.336 34.5592 55.28 34.5592 53.904C34.5592 52.56 34.9112 51.488 35.6472 50.688C36.3672 49.904 37.3592 49.504 38.6072 49.504ZM38.5752 50.656C37.7752 50.656 37.1352 50.944 36.6712 51.52C36.1912 52.112 35.9672 52.896 35.9672 53.872C35.9672 54.896 36.1912 55.68 36.6552 56.256C37.1192 56.832 37.7752 57.104 38.6072 57.104C39.4072 57.104 40.0312 56.816 40.4792 56.24C40.9272 55.664 41.1672 54.88 41.1672 53.856C41.1672 52.88 40.9272 52.096 40.4632 51.52C39.9992 50.944 39.3752 50.656 38.5752 50.656ZM47.0587 49.744V50.912C47.6507 49.968 48.5787 49.488 49.8427 49.488C50.9947 49.488 51.9067 49.888 52.5787 50.656C53.2507 51.44 53.6027 52.496 53.6027 53.824C53.6027 55.168 53.2667 56.224 52.5947 57.024C51.9227 57.824 51.0267 58.208 49.9067 58.208C48.7227 58.208 47.7947 57.76 47.1387 56.848V61.184H45.7787V49.744H47.0587ZM49.6347 50.624C48.8347 50.624 48.2107 50.912 47.7627 51.488C47.3147 52.064 47.0907 52.848 47.0907 53.84C47.0907 54.848 47.3147 55.632 47.7787 56.208C48.2427 56.784 48.8827 57.072 49.6827 57.072C50.4507 57.072 51.0747 56.784 51.5227 56.208C51.9707 55.632 52.1947 54.848 52.1947 53.856C52.1947 52.848 51.9547 52.064 51.5067 51.488C51.0587 50.912 50.4347 50.624 49.6347 50.624Z" fill="black"/>
</svg>
