<svg width="14" height="14" viewBox="0 0 14 14" fill="none" xmlns="http://www.w3.org/2000/svg">
<path d="M5.28344 7.61678C5.42341 7.47729 5.61123 7.3963 5.80874 7.39027C6.00626 7.38424 6.19867 7.45361 6.34688 7.5843C6.4951 7.715 6.58802 7.89721 6.60675 8.09392C6.62549 8.29064 6.56865 8.48712 6.44778 8.64344L6.38322 8.71656L2.65533 12.4444H4.66667C4.86491 12.4447 5.05558 12.5206 5.19973 12.6567C5.34388 12.7927 5.43063 12.9787 5.44225 13.1766C5.45386 13.3745 5.38948 13.5694 5.26224 13.7214C5.135 13.8734 4.95452 13.9711 4.75767 13.9946L4.66667 14H0.777778C0.587274 14 0.403405 13.93 0.261044 13.8034C0.118684 13.6769 0.0277334 13.5024 0.00544442 13.3132L0 13.2222V9.33333C0.000219884 9.13509 0.0761282 8.94442 0.212215 8.80027C0.348303 8.65612 0.534297 8.56937 0.732196 8.55775C0.930095 8.54614 1.12496 8.61052 1.27698 8.73776C1.429 8.865 1.5267 9.04548 1.55011 9.24233L1.55556 9.33333V11.3447L5.28344 7.61678ZM13.2222 0C13.4127 2.51304e-05 13.5966 0.0699659 13.739 0.196556C13.8813 0.323147 13.9723 0.497582 13.9946 0.686778L14 0.777778V4.66667C13.9998 4.86491 13.9239 5.05558 13.7878 5.19973C13.6517 5.34388 13.4657 5.43063 13.2678 5.44225C13.0699 5.45386 12.875 5.38948 12.723 5.26224C12.571 5.135 12.4733 4.95452 12.4499 4.75767L12.4444 4.66667V2.65533L8.71656 6.38322C8.57659 6.52271 8.38877 6.6037 8.19126 6.60973C7.99374 6.61576 7.80133 6.54639 7.65312 6.4157C7.5049 6.285 7.41198 6.10279 7.39325 5.90608C7.37451 5.70936 7.43135 5.51288 7.55222 5.35656L7.61678 5.28344L11.3447 1.55556H9.33333C9.13509 1.55534 8.94442 1.47943 8.80027 1.34334C8.65612 1.20725 8.56937 1.02126 8.55775 0.82336C8.54614 0.625461 8.61052 0.430594 8.73776 0.278575C8.865 0.126556 9.04548 0.0288584 9.24233 0.00544442L9.33333 0H13.2222Z" fill="white"/>
</svg>
