<svg width="12" height="24" viewBox="0 0 12 24" fill="none" xmlns="http://www.w3.org/2000/svg">
<path d="M11.3531 1.9673C11.4533 1.85599 11.5316 1.72504 11.5836 1.58194C11.6355 1.43884 11.6602 1.28639 11.656 1.13329C11.6519 0.980198 11.6191 0.829454 11.5595 0.689669C11.4999 0.549885 11.4147 0.423796 11.3087 0.318604C11.2028 0.213411 11.0781 0.131174 10.9419 0.0765878C10.8056 0.0220017 10.6605 -0.00386447 10.5147 0.000466395C10.369 0.00479726 10.2254 0.0392402 10.0924 0.101829C9.95928 0.164417 9.83924 0.253925 9.73909 0.365243L0.303432 10.8591C0.108573 11.0756 0 11.3622 0 11.6601C0 11.958 0.108573 12.2447 0.303432 12.4611L9.73909 22.9562C9.83858 23.0699 9.9586 23.1618 10.0922 23.2264C10.2257 23.291 10.3702 23.3271 10.5172 23.3326C10.6641 23.3381 10.8107 23.3128 10.9483 23.2583C11.0859 23.2038 11.2118 23.1212 11.3187 23.0151C11.4257 22.909 11.5114 22.7817 11.5711 22.6406C11.6308 22.4994 11.6632 22.3472 11.6664 22.1927C11.6696 22.0383 11.6436 21.8848 11.5898 21.741C11.536 21.5972 11.4556 21.4661 11.3531 21.3553L2.63681 11.6601L11.3531 1.9673Z" fill="#CCCCCC"/>
</svg>
