<svg width="22" height="18" viewBox="0 0 22 18" fill="none" xmlns="http://www.w3.org/2000/svg">
<path d="M19 1H3C1.89543 1 1 1.89543 1 3V15C1 16.1046 1.89543 17 3 17H19C20.1046 17 21 16.1046 21 15V3C21 1.89543 20.1046 1 19 1Z" stroke="white" stroke-width="2" stroke-linecap="round" stroke-linejoin="round"/>
<path d="M19 1H14C12.8954 1 12 1.89543 12 3V6C12 7.10457 12.8954 8 14 8H19C20.1046 8 21 7.10457 21 6V3C21 1.89543 20.1046 1 19 1Z" stroke="white" stroke-width="2" stroke-linecap="round" stroke-linejoin="round"/>
</svg>
