<svg width="12" height="24" viewBox="0 0 12 24" fill="none" xmlns="http://www.w3.org/2000/svg">
<path d="M0.31287 1.9673C0.212721 1.85599 0.134428 1.72504 0.0824585 1.58194C0.0304899 1.43884 0.00586319 1.28639 0.00998688 1.13329C0.0141096 0.980198 0.0469017 0.829454 0.106489 0.689669C0.166077 0.549885 0.251293 0.423796 0.357273 0.318604C0.463254 0.213411 0.587923 0.131174 0.724161 0.0765878C0.860399 0.0220017 1.00554 -0.00386447 1.15129 0.000466395C1.29705 0.00479726 1.44057 0.0392402 1.57365 0.101829C1.70673 0.164417 1.82677 0.253925 1.92692 0.365243L11.3626 10.8591C11.5574 11.0756 11.666 11.3622 11.666 11.6601C11.666 11.958 11.5574 12.2447 11.3626 12.4611L1.92692 22.9562C1.82744 23.0699 1.70742 23.1618 1.57385 23.2264C1.44028 23.291 1.29581 23.3271 1.14884 23.3326C1.00187 23.3381 0.855332 23.3128 0.717731 23.2583C0.580129 23.2038 0.454209 23.1212 0.347286 23.0151C0.240363 22.909 0.154567 22.7817 0.094882 22.6406C0.0351973 22.4994 0.00281334 22.3472 -0.000388145 22.1927C-0.00359058 22.0383 0.0224533 21.8848 0.07623 21.741C0.130006 21.5972 0.210444 21.4661 0.31287 21.3553L9.0292 11.6601L0.31287 1.9673Z" fill="#CCCCCC"/>
</svg>
 